<svg width="24" height="22" viewBox="0 0 24 22" fill="none" xmlns="http://www.w3.org/2000/svg">
<g clip-path="url(#clip0_176_1931)">
<path d="M13.6083 2.37659C14.2522 2.4604 14.8422 2.0045 14.9272 1.35734C15.0123 0.710196 14.5604 0.115877 13.917 0.0285966C13.271 -0.0590216 12.6771 0.397383 12.5917 1.04701C12.5063 1.69663 12.9619 2.29247 13.6083 2.37659Z" fill="#3D6D57"/>
<path d="M20.2721 1.79405C20.7184 1.85389 21.1284 1.53875 21.188 1.09017C21.2476 0.641554 20.9343 0.229262 20.4881 0.169208C20.0417 0.109135 19.6314 0.424276 19.5718 0.873039C19.5122 1.32179 19.8257 1.73416 20.2721 1.79405Z" fill="#3D6D57"/>
<path d="M9.52329 3.34768C8.8963 1.61566 7.75382 0.486975 5.79809 0.421388C5.29972 0.352541 4.77235 0.467623 4.29266 0.609124C1.90256 1.31413 0.866915 3.74694 1.6473 6.04038H20.7041H22.5234C22.2767 4.36932 21.1339 3.54177 19.4846 3.58139C18.1409 1.75974 15.5923 2.06799 14.6287 4.0575C14.2279 4.88474 14.3128 5.13497 13.5172 4.31712C12.4772 3.23684 10.9579 2.80948 9.52329 3.34768ZM5.68746 1.89706C6.38648 2.01473 6.56484 2.80003 5.99936 3.20404C5.64874 3.45452 4.58757 3.21687 4.37565 4.25716C4.28114 4.72138 4.46007 5.53166 3.53854 5.45511C1.92422 4.9417 3.52572 1.73577 5.68746 1.89706Z" fill="#3D6D57"/>
<path d="M17.1094 7.52312H6.35451L1.26359 7.52193C1.04992 7.52149 0.820316 7.51192 0.608332 7.53438C-0.235559 7.62382 -0.0906868 8.95534 0.552301 9.0163C0.947384 9.05373 1.35965 9.04065 1.75604 9.04071L10.7121 9.04065L13.1711 9.04115C14.806 9.04265 15.1995 9.12677 16.5754 7.97244C16.7426 7.83206 16.9276 7.64104 17.1094 7.52312Z" fill="#3D6D57"/>
<path d="M15.0303 12.2895L15.1086 12.3058C15.7923 12.4438 16.358 11.9098 16.8489 11.5092L18.3007 10.3051C19.4365 9.37503 19.9423 9.03836 21.4885 9.03961L22.6394 9.0413C22.8802 9.04155 23.0971 9.0455 23.3409 9.01896C24.2501 8.91994 24.1927 7.66528 23.2948 7.52296C20.8063 7.5212 19.4418 7.30984 17.4161 9.06571C16.9352 9.48255 16.1924 10.0973 15.6349 10.4096C15.3827 10.5455 15.1144 10.53 14.8496 10.6311C14.042 10.9395 14.2085 11.9748 15.0303 12.2895Z" fill="#3D6D57"/>
<path d="M20.3903 19.7454C20.5478 19.6107 20.7363 19.5055 20.906 19.3863C23.0106 17.9073 23.0363 16.253 23.1732 13.9665L23.375 10.4011L22.0169 10.4001C20.6395 10.3998 20.3606 10.4433 19.2383 11.3538C18.4792 11.9623 17.756 12.6006 16.9685 13.1743C14.9894 14.647 12.2452 12.9871 13.0904 10.4853C12.7504 10.4636 12.118 10.4848 11.7561 10.485L0.62361 10.4853C0.615143 11.2772 0.699129 12.3323 0.740591 13.1378L0.836716 14.7699C0.944172 16.6853 1.34317 18.0148 2.95095 19.2874C3.1584 19.4418 3.39927 19.5988 3.61468 19.7454L3.60584 19.7686C3.35258 20.4475 2.48652 21.2818 3.36914 21.875C3.62427 22.0464 4.08721 21.9748 4.28599 21.7351C4.48746 21.4921 4.85471 20.712 5.03008 20.3728C5.83612 20.5508 6.24938 20.576 7.07105 20.5757L15.3294 20.5756C16.2817 20.5756 17.2556 20.6264 18.2014 20.4933C18.4319 20.4609 18.6884 20.384 18.9176 20.3738L18.9447 20.3728C19.2469 20.8235 19.4089 21.6414 19.926 21.8878C20.3038 22.068 20.8151 21.8818 20.9641 21.4754C21.0863 21.142 20.8789 20.8071 20.7405 20.5074L20.3903 19.7454ZM20.5544 14.5704C22.0437 14.8682 20.3989 19.1546 17.316 18.7925C16.7331 18.6086 16.583 17.7826 17.1745 17.5216C17.3868 17.4279 17.6568 17.4514 17.8839 17.4062C18.839 17.2324 19.5532 16.4759 19.7343 15.5327C19.8445 14.9593 19.8475 14.5293 20.5544 14.5704Z" fill="#3D6D57"/>
</g>
<defs>
<clipPath id="clip0_176_1931">
<rect width="24" height="22" fill="white" transform="matrix(-1 0 0 1 24 0)"/>
</clipPath>
</defs>
</svg>
