<svg width="26" height="24" viewBox="0 0 26 24" fill="none" xmlns="http://www.w3.org/2000/svg">
<g clip-path="url(#clip0_176_1948)">
<path d="M1.203 10.902C1.22464 10.5383 1.20358 9.90213 1.20344 9.51708L1.20227 6.72265C1.20138 5.62059 1.08575 4.65439 1.833 3.72182C2.74907 2.52662 4.04013 2.58298 5.40175 2.6225C6.28392 2.64804 6.14613 2.63366 6.80128 2.11803C8.43989 0.828256 10.2704 0.271683 12.3256 0.0584178C14.5301 -0.0204976 16.5058 0.439416 18.4148 1.58085C19.8979 2.46758 19.3675 2.66562 21.2064 2.62129C23.7498 2.56867 24.8305 3.71573 24.8293 6.18576L24.8288 10.902C24.3295 10.3973 23.1646 9.82257 22.4614 9.75551C22.581 9.27378 22.8413 8.67598 22.8356 8.18489C22.8249 7.27879 22.1096 6.37023 21.2009 6.18877C20.6158 6.07189 19.9732 6.11174 19.3797 6.11248L17.1328 6.11181C15.1643 6.11221 14.1114 6.76424 14.1138 8.81645L14.1148 9.68771H13.7432H11.8842C11.8887 7.29765 11.6715 6.11408 8.96747 6.11214L6.23564 6.11201C5.83928 6.11221 5.4553 6.10432 5.05528 6.15306C3.81568 6.30403 2.86485 7.52397 3.25038 8.7419C3.36325 9.0986 3.4902 9.37059 3.54457 9.75551C2.90487 9.86843 1.63108 10.3718 1.203 10.902ZM12.922 5.66298C12.4964 5.70664 12.1867 6.08166 12.2289 6.50201C12.2711 6.92243 12.6494 7.23005 13.0753 7.19034C13.5041 7.15035 13.8181 6.77373 13.7756 6.35057C13.7331 5.92741 13.3503 5.61905 12.922 5.66298Z" fill="#3D6D57"/>
<path d="M5.07021 9.68778C5.03074 8.96555 4.13468 7.76587 5.24544 7.61925C5.53489 7.60407 5.87052 7.61851 6.16411 7.61845L8.97759 7.61932C10.1464 7.62126 10.4198 7.65616 10.4127 8.82194L10.4109 9.68778H9.86132H5.07021Z" fill="#3D6D57"/>
<path d="M15.5736 9.6878C15.5788 8.80645 15.3222 7.70893 16.5504 7.61927L19.1355 7.61854C19.64 7.61867 20.1512 7.61372 20.6557 7.62616C21.7834 7.64254 21.0088 8.9409 20.9681 9.6878H20.3545H15.5736Z" fill="#3D6D57"/>
<path d="M0.731376 18.4109L0.730604 16.2114C0.730909 14.5929 0.688808 13.59 1.85139 12.3624C3.12197 11.0208 4.60228 11.1426 6.29844 11.1435L20.8978 11.1433C22.1122 11.0572 23.2025 11.4476 24.078 12.2976C25.3155 13.4989 25.2563 14.6323 25.2563 16.1864L25.256 18.4109H5.13568H0.731376ZM2.72587 12.4819C1.01511 12.9197 2.87091 15.9186 5.06912 15.871C5.74567 15.7296 5.94798 14.8736 5.36339 14.4872C5.04136 14.2745 3.75524 14.3673 3.61637 13.4677C3.53404 12.9343 3.48468 12.3831 2.72587 12.4819ZM22.9344 12.551C22.4798 12.6493 22.3918 12.9274 22.3054 13.3336C22.0023 14.76 20.7538 13.9996 20.3512 14.6887C19.9683 15.344 20.5124 15.8581 21.2028 15.871C22.193 15.706 22.816 15.4728 23.4491 14.6111C23.9352 13.9495 24.1982 12.4545 22.9344 12.551Z" fill="#3D6D57"/>
<path d="M0.730403 22.2242C-0.469185 21.539 -0.0665171 20.0057 1.30934 19.9216L24.0642 19.9208C24.4415 19.9204 24.9229 19.8854 25.2758 20.0011C26.2788 20.3297 26.1762 21.6513 25.255 22.0603C25.257 22.6448 25.4291 23.5696 24.8273 23.8555C24.2339 24.1374 23.9234 23.5511 23.7211 23.1485C23.5684 22.8536 23.3354 22.4296 23.2202 22.1306H2.79864L2.78956 22.1398C2.30711 22.6177 1.98164 24.5881 0.928525 23.7119C0.614907 23.4509 0.730986 22.6452 0.730403 22.2242Z" fill="#3D6D57"/>
</g>
<defs>
<clipPath id="clip0_176_1948">
<rect width="26" height="24" fill="white"/>
</clipPath>
</defs>
</svg>
