<svg width="28" height="24" viewBox="0 0 28 24" fill="none" xmlns="http://www.w3.org/2000/svg">
<path d="M19.6133 0.854974C19.7974 0.814381 20.2174 0.763251 20.4094 0.742961C21.7832 0.548216 22.903 1.50055 23.8538 2.27218C24.6627 2.9287 25.5615 3.60423 26.3363 4.28982C27.7178 5.54872 27.2293 6.99524 26.88 8.48823C26.7573 9.01249 26.6671 9.89911 26.2765 10.2898C25.8376 10.6861 25.1088 10.6117 24.8243 10.0747C24.7181 9.86772 24.7162 9.62828 24.704 9.40308C24.5367 6.33118 22.9425 3.23085 20.3426 1.39779C20.0976 1.22501 19.8117 1.0732 19.6133 0.854974Z" fill="#3D6D57"/>
<path d="M2.86371 12.1065C3.51287 11.8699 4.32109 11.3609 4.61973 10.7319C4.84999 10.247 4.77346 9.54122 4.83215 8.98041C5.29742 4.53637 9.06233 1.01031 13.7266 0.811309C18.7992 0.498821 23.132 4.91233 23.1847 9.76474C23.1973 10.9302 23.9723 11.777 25.1275 12.1065C25.1318 12.3884 25.1156 12.6976 25.0805 12.9773C24.4085 18.336 19.8191 22.3138 14.2862 22.548C11.7924 22.5645 9.64057 21.9283 7.62427 20.4915C5.13413 18.7172 3.46266 16.3027 2.99653 13.3076C2.93739 12.9242 2.85672 12.4951 2.86371 12.1065ZM9.20711 4.85155C8.45857 4.93379 7.66497 5.21455 7.14642 5.76182C6.74478 6.18573 7.25858 7.01343 7.94289 6.87712C8.13051 6.83973 8.35804 6.64225 8.53155 6.54531C10.4308 5.48454 12.4983 7.59796 11.2744 9.62217C10.8488 10.3391 10.2938 10.4731 9.62707 10.9306C7.8066 12.1797 6.61698 13.9742 6.28465 16.1051C6.0326 17.7891 7.5861 17.4829 7.69939 16.5343C7.94764 14.4556 9.27335 12.6974 11.1598 11.6958C14.665 9.82295 13.2294 4.46882 9.20711 4.85155ZM18.3556 4.85155C14.8182 5.01455 13.6762 9.07574 16.1962 11.288C16.5665 11.6104 16.8949 11.7546 17.2929 12.0113C18.7419 12.946 19.7688 14.2941 20.1726 15.9267C20.2364 16.1845 20.2507 16.7229 20.3732 16.9219C20.6307 17.3401 21.2704 17.4458 21.6135 17.0398C21.9157 16.682 21.7715 16.08 21.6868 15.6642C21.2434 13.7382 19.9635 11.9393 18.2341 10.8693C17.7319 10.5585 17.391 10.4314 16.9843 9.98376C15.8448 8.72931 16.2406 6.68608 18.0546 6.31444C19.3336 6.05244 19.8023 7.01769 20.4176 6.87305C20.8477 6.77199 21.0871 6.36497 20.971 5.95615C20.7644 5.22847 19.0253 4.83859 18.3556 4.85155ZM9.10605 7.71075C8.70835 7.80382 8.46505 8.19119 8.56377 8.57417C8.66256 8.95715 9.06561 9.18956 9.46224 9.09218C9.85573 8.99556 10.0944 8.61065 9.99643 8.2307C9.89844 7.85074 9.50067 7.61839 9.10605 7.71075ZM18.5286 7.72609C18.1468 7.81368 17.9104 8.18261 18.0001 8.55103C18.0898 8.91944 18.4717 9.14844 18.854 9.06311C19.238 8.97739 19.4768 8.60723 19.3867 8.23721C19.2966 7.86718 18.9121 7.63811 18.5286 7.72609ZM13.8186 11.6034C12.6021 11.7245 10.8253 12.2439 11.4273 13.776C11.7406 14.573 12.4344 15.5406 13.3701 15.7146C12.228 18.4338 10.3097 17.1215 9.84543 18.1368C9.68154 18.4952 9.95532 19.0524 10.3399 19.1226C11.6703 19.3652 13.1484 18.4966 13.9976 17.5568C14.0488 17.5758 14.0467 17.5863 14.0848 17.6317C16.0726 19.9443 19.221 19.1669 18.0621 17.8898C17.4943 17.211 15.8329 18.4037 14.642 15.7146C15.8449 15.4763 16.7929 14.0293 16.6191 12.886C16.491 12.0438 14.5279 11.4814 13.8186 11.6034Z" fill="#3D6D57"/>
<path d="M2.101 10.5166C1.4468 10.3204 1.39397 9.58515 1.26422 9.02628C0.923518 7.55881 0.330631 6.08902 1.31447 4.70714C1.74623 4.1007 2.41976 3.70973 2.97192 3.21209C4.38825 2.03382 5.06401 1.19989 6.99676 0.811279C7.59425 0.86036 7.64986 0.790197 8.27475 0.971188C8.11847 1.08477 7.95405 1.18295 7.79249 1.29923C5.1132 3.2273 3.33675 6.36153 3.27579 9.60216C3.26271 10.2972 2.80589 10.6912 2.101 10.5166Z" fill="#3D6D57"/>
<path d="M12.8672 13.39C13.1948 13.2224 13.446 13.1764 13.8197 13.134C14.2033 13.0799 14.7888 13.2215 15.1308 13.39C14.9604 13.9077 14.7619 14.1793 14.194 14.2974C13.5429 14.341 13.0042 14.0294 12.8672 13.39Z" fill="#3D6D57"/>
</svg>
