<svg width="169" height="37" viewBox="0 0 169 37" fill="none" xmlns="http://www.w3.org/2000/svg">
<mask id="mask0_123_1336" style="mask-type:luminance" maskUnits="userSpaceOnUse" x="0" y="-1" width="53" height="38">
<path d="M52.9078 -0.0160789H0V36.6255H52.9078V-0.0160789Z" fill="white"/>
</mask>
<g mask="url(#mask0_123_1336)">
<path d="M52.5817 25.0339C52.2221 25.77 51.4344 26.6091 50.681 27.2597C50.4756 27.1569 50.3043 27.0029 50.1675 26.8316L46.5205 21.9518L32.0522 3.92206L23.9876 13.5619L23.5423 14.0927L20.4432 17.7911L17.0872 21.5661C15.8545 21.4463 14.6215 21.3607 13.3888 21.3093L16.4537 17.8767L21.2823 12.1065L19.8611 10.36L19.022 11.5243C18.7481 11.901 18.3199 12.1407 17.8406 12.1407C17.3611 12.1407 16.9161 11.9353 16.6248 11.5757L13.3888 7.55197L5.01605 19.041L3.40661 21.2498C2.79025 21.2498 2.17366 21.2327 1.5573 21.2155C1.19771 21.1984 0.923803 21.1642 0.718427 21.1128L0.204635 20.5991H0.1875C0.1875 20.582 1.36906 18.9554 1.36906 18.9554L12.1218 4.19602C12.3957 3.81933 12.8238 3.59675 13.3031 3.57961C13.7655 3.57961 14.2279 3.76797 14.519 4.14467L17.755 8.16838L18.5941 7.00408C18.868 6.62739 19.313 6.38767 19.7754 6.38767C20.2549 6.38767 20.6828 6.57601 20.991 6.93559L23.2856 9.76076L30.9734 0.531862C31.2645 0.172295 31.7097 -0.0160496 32.1719 0.00107263C32.6343 0.00107263 33.0624 0.240785 33.3363 0.600352L51.092 23.0476L52.5817 25.051V25.0339Z" fill="white"/>
<path d="M52.5387 26.2666C52.1791 27.0029 51.3914 27.8418 50.638 28.4924C50.0902 28.9891 49.5423 29.3829 49.2339 29.5712C47.5731 30.4957 45.9979 30.0678 43.9946 29.5712C40.4845 28.6124 37.0602 26.8144 33.6528 25.496C28.1908 23.3045 22.7116 22.2771 17.1127 21.7634C15.88 21.6436 14.647 21.558 13.4143 21.5066C10.1269 21.3354 6.78808 21.284 3.415 21.2326C2.79864 21.2326 2.18204 21.2155 1.56568 21.1984C1.2061 21.1813 0.932189 21.147 0.726812 21.0957C0.247291 20.9758 0.127351 20.7875 0.213021 20.582C0.401495 20.1539 1.46288 19.6574 2.31912 19.5204C3.20939 19.3492 4.11703 19.178 5.02444 19.0239C8.77424 18.3903 12.6609 17.9965 16.4792 17.8424C17.8148 17.7911 19.1503 17.7568 20.4687 17.7739C21.8042 17.7739 23.1055 17.8082 24.3896 17.8767C29.201 18.1164 33.8925 19.3663 38.4812 20.7875C41.1182 21.6093 43.7892 22.4826 46.4774 23.1846C47.1109 23.3557 47.7273 23.4928 48.3608 23.647H48.3951C48.9771 23.7838 49.5764 23.9209 50.1587 24.0577C50.4669 24.1434 50.7579 24.1948 51.049 24.2633C51.6653 24.4002 52.2134 24.5886 52.607 25.0339C52.8469 25.3592 52.7783 25.7871 52.5558 26.2666H52.5387Z" fill="white"/>
<path d="M20.7372 26.2666C22.4666 26.7119 24.2131 27.1398 25.9253 27.6707C28.5964 28.5438 31.1475 29.6054 33.7502 30.8382C35.1027 31.4888 36.3699 32.1565 37.4484 32.7903C38.0479 33.1668 38.6985 33.5435 39.1266 34.1258C40.188 35.6838 37.7054 36.1634 36.541 36.3345C26.1992 38.2692 22.0213 29.8451 13.2547 27.4651C12.6555 27.294 11.5256 26.9344 11.457 26.3523C11.457 25.8728 12.0905 25.6502 12.5529 25.5646C13.8199 25.3935 15.1897 25.5646 16.4567 25.6674C17.8779 25.8042 19.3331 25.9413 20.6858 26.2666H20.7201H20.7372Z" fill="white"/>
</g>
<path d="M163.881 14.4069C165.627 14.4069 167.544 13.0628 168.1 11.4075C168.724 9.54392 168.185 7.75977 167.023 6.5988C166.194 5.7706 165.052 5.25927 163.788 5.25927H153.367C153.201 5.25927 153.066 5.39392 153.066 5.56023V7.46662C153.066 7.63293 153.201 7.76758 153.367 7.76758H154.579C154.745 7.76758 154.88 7.90222 154.88 8.06853V18.2333C154.88 18.3996 155.015 18.5343 155.181 18.5343H157.087C157.254 18.5343 157.389 18.3996 157.389 18.2333V14.7066C157.389 14.5403 157.523 14.4057 157.689 14.4057H159.476C159.556 14.4057 159.632 14.4374 159.689 14.494L161.833 16.638L163.641 18.4461C163.697 18.5026 163.774 18.5343 163.853 18.5343H168.058C168.224 18.5343 168.359 18.3996 168.359 18.2333V16.3257C168.359 16.1594 168.224 16.0247 168.058 16.0247H164.893C164.813 16.0247 164.737 15.9931 164.681 15.9366L163.664 14.9205C163.474 14.7305 163.609 14.4057 163.877 14.4057L163.881 14.4069ZM157.391 11.5952V8.06853C157.391 7.90222 157.525 7.76758 157.692 7.76758H163.731C164.872 7.76758 165.84 8.66829 165.853 9.80876C165.859 10.388 165.626 10.913 165.247 11.2921C164.874 11.6665 164.358 11.8974 163.788 11.8974H157.692C157.525 11.8974 157.391 11.7627 157.391 11.5964V11.5952Z" fill="white"/>
<path d="M86.1998 7.46785V5.56023C86.1998 5.39392 86.0651 5.25927 85.8988 5.25927H82.0893C82.009 5.25927 81.9332 5.29095 81.8766 5.34756L76.6698 10.5543C76.6132 10.6109 76.5362 10.6426 76.457 10.6426H75.5304C75.3641 10.6426 75.2295 10.508 75.2295 10.3417V5.56023C75.2295 5.39392 75.0948 5.25927 74.9285 5.25927H71.2072C71.0409 5.25927 70.9062 5.39392 70.9062 5.56023V7.46785C70.9062 7.63416 71.0409 7.7688 71.2072 7.7688H72.4178C72.5842 7.7688 72.7188 7.90344 72.7188 8.06975V15.7227C72.7188 15.889 72.5842 16.0237 72.4178 16.0237H71.2072C71.0409 16.0237 70.9062 16.1583 70.9062 16.3246V18.2322C70.9062 18.3986 71.0409 18.5332 71.2072 18.5332H74.9285C75.0948 18.5332 75.2295 18.3986 75.2295 18.2322V13.4508C75.2295 13.2845 75.3641 13.1498 75.5304 13.1498H76.457C76.5374 13.1498 76.6132 13.1815 76.6698 13.2381L81.8766 18.4449C81.9332 18.5015 82.0101 18.5332 82.0893 18.5332H85.8988C86.0651 18.5332 86.1998 18.3986 86.1998 18.2322V16.3246C86.1998 16.1583 86.0651 16.0237 85.8988 16.0237H83.1279C83.0476 16.0237 82.9718 15.992 82.9152 15.9354L79.0887 12.109C78.9711 11.9913 78.9711 11.8001 79.0887 11.6824L82.9152 7.85586C82.9718 7.7994 83.0488 7.76758 83.1279 7.76758H85.8988C86.0651 7.76758 86.1998 7.63309 86.1998 7.46662V7.46785Z" fill="white"/>
<path d="M102.662 16.0247H92.2921C92.1258 16.0247 91.9912 15.8901 91.9912 15.7238V13.4531C91.9912 13.2868 92.1258 13.1521 92.2921 13.1521H99.058C99.2243 13.1521 99.3589 13.0175 99.3589 12.8512V10.9436C99.3589 10.7773 99.2243 10.6426 99.058 10.6426H92.2921C92.1258 10.6426 91.9912 10.508 91.9912 10.3417V7.76987H102.662C102.828 7.76987 102.963 7.63523 102.963 7.46892V5.5613C102.963 5.39499 102.828 5.26035 102.662 5.26035H89.4816H87.9689C87.8026 5.26035 87.668 5.39499 87.668 5.5613V7.46892C87.668 7.63523 87.8026 7.76987 87.9689 7.76987H89.1807C89.347 7.76987 89.4816 7.90452 89.4816 8.07083V18.5355H91.9912H102.662C102.828 18.5355 102.963 18.4008 102.963 18.2345V16.3269C102.963 16.1606 102.828 16.026 102.662 16.026V16.0247Z" fill="white"/>
<path d="M151.099 16.0247H140.73C140.563 16.0247 140.429 15.8901 140.429 15.7238V13.4531C140.429 13.2868 140.563 13.1521 140.73 13.1521H147.495C147.662 13.1521 147.796 13.0175 147.796 12.8512V10.9436C147.796 10.7773 147.662 10.6426 147.495 10.6426H140.73C140.563 10.6426 140.429 10.508 140.429 10.3417V7.76987H151.099C151.265 7.76987 151.4 7.63523 151.4 7.46892V5.5613C151.4 5.39499 151.265 5.26035 151.099 5.26035H137.919H136.406C136.24 5.26035 136.105 5.39499 136.105 5.5613V7.46892C136.105 7.63523 136.24 7.76987 136.406 7.76987H137.618C137.785 7.76987 137.919 7.90452 137.919 8.07083V18.5355H140.429H151.099C151.265 18.5355 151.4 18.4008 151.4 18.2345V16.3269C151.4 16.1606 151.265 16.026 151.099 16.026V16.0247Z" fill="white"/>
<path d="M133.449 14.512V15.7238C133.449 15.8901 133.315 16.0247 133.148 16.0247H125.289C125.123 16.0247 124.988 15.8901 124.988 15.7238V5.56023C124.988 5.39392 124.854 5.25927 124.687 5.25927H120.965C120.799 5.25927 120.664 5.39392 120.664 5.56023V7.46785C120.664 7.63416 120.799 7.7688 120.965 7.7688H122.177C122.343 7.7688 122.478 7.90344 122.478 8.06975V18.5343H135.658C135.824 18.5343 135.959 18.3996 135.959 18.2333V14.5109C135.959 14.3446 135.824 14.21 135.658 14.21H133.75C133.584 14.21 133.449 14.3446 133.449 14.5109V14.512Z" fill="white"/>
<path d="M117.898 10.9142C118.147 10.3971 118.286 9.81779 118.286 9.20563C118.286 7.02659 116.519 5.25927 114.34 5.25927H109.433H106.923H105.41C105.244 5.25927 105.109 5.39392 105.109 5.56023V7.46785C105.109 7.63416 105.244 7.7688 105.41 7.7688H106.923V10.6414V13.1509V15.7227C106.923 15.889 106.788 16.0237 106.622 16.0237H105.41C105.244 16.0237 105.109 16.1583 105.109 16.3246V18.2322C105.109 18.3986 105.244 18.5332 105.41 18.5332H109.434H116.459C118.638 18.5332 120.405 16.7659 120.405 14.5867C120.405 12.9156 119.365 11.4878 117.898 10.9119V10.9142ZM114.34 7.7688C115.133 7.7688 115.777 8.4114 115.777 9.20563C115.777 9.99879 115.134 10.6426 114.34 10.6426H109.735C109.568 10.6426 109.434 10.508 109.434 10.3417V8.07082C109.434 7.90451 109.568 7.76987 109.735 7.76987H114.34V7.7688ZM117.896 14.5879C117.896 15.3811 117.253 16.0247 116.459 16.0247H109.735C109.568 16.0247 109.434 15.8901 109.434 15.7238V13.4531C109.434 13.2868 109.568 13.1521 109.735 13.1521H114.34H116.458C117.251 13.1521 117.895 13.7947 117.895 14.589L117.896 14.5879Z" fill="white"/>
<path d="M98.3791 31.348C97.622 31.348 96.9601 31.1918 96.3911 30.8795C95.822 30.5672 95.3796 30.127 95.064 29.5603C94.7482 28.9934 94.5898 28.3259 94.5898 27.5587C94.5898 26.9998 94.6826 26.4896 94.8682 26.0257C95.0537 25.5629 95.3174 25.1602 95.659 24.8185C96.0008 24.4767 96.4035 24.2131 96.8663 24.0276C97.329 23.842 97.8382 23.7492 98.3938 23.7492C98.9493 23.7492 99.455 23.8217 99.8612 23.9654C100.267 24.109 100.628 24.3138 100.944 24.5774L100.251 25.6862C100.03 25.4747 99.7695 25.3174 99.473 25.2155C99.1767 25.1138 98.8474 25.0616 98.4865 25.0616C98.1018 25.0616 97.7556 25.1195 97.4513 25.2337C97.1457 25.3479 96.8855 25.5142 96.6705 25.7304C96.4555 25.9476 96.2905 26.209 96.1762 26.5133C96.0619 26.8176 96.0042 27.1616 96.0042 27.5441C96.0042 28.0679 96.1059 28.5149 96.3108 28.8836C96.5155 29.2537 96.8064 29.5364 97.1854 29.7344C97.5643 29.9326 98.0125 30.0309 98.5328 30.0309C98.8837 30.0309 99.2253 29.9766 99.5602 29.8691C99.8952 29.7617 100.212 29.5897 100.511 29.3544L101.135 30.4936C100.788 30.7641 100.386 30.9745 99.9302 31.1238C99.4743 31.2733 98.956 31.348 98.3768 31.348H98.3791Z" fill="white"/>
<path d="M107.062 31.348C106.51 31.348 106 31.2517 105.529 31.0594C105.059 30.8671 104.65 30.5989 104.304 30.2549C103.958 29.911 103.688 29.5094 103.497 29.0477C103.306 28.5861 103.211 28.0871 103.211 27.5485C103.211 27.0099 103.306 26.5066 103.497 26.0449C103.688 25.5832 103.957 25.1805 104.304 24.8376C104.651 24.4949 105.06 24.2267 105.529 24.0367C105.999 23.8465 106.51 23.7504 107.062 23.7504C107.614 23.7504 108.119 23.8477 108.588 24.0423C109.056 24.2368 109.463 24.5073 109.811 24.8546C110.158 25.2019 110.428 25.6048 110.623 26.0653C110.818 26.5257 110.915 27.0202 110.915 27.5508C110.915 28.0814 110.818 28.5883 110.623 29.0499C110.428 29.5116 110.158 29.9143 109.811 30.2572C109.463 30.5999 109.056 30.8692 108.588 31.0617C108.119 31.254 107.611 31.3501 107.062 31.3501V31.348ZM107.062 30.0727C107.406 30.0727 107.726 30.0129 108.023 29.8929C108.319 29.773 108.579 29.6033 108.798 29.3827C109.017 29.162 109.189 28.8972 109.313 28.5861C109.436 28.276 109.497 27.9299 109.497 27.5474C109.497 27.0372 109.39 26.5936 109.175 26.2146C108.96 25.8367 108.668 25.5437 108.3 25.3355C107.932 25.1272 107.519 25.0232 107.061 25.0232C106.714 25.0232 106.394 25.0821 106.098 25.1998C105.803 25.3174 105.546 25.4882 105.326 25.71C105.105 25.9317 104.933 26.1976 104.811 26.5066C104.688 26.8155 104.626 27.1628 104.626 27.5474C104.626 28.0577 104.733 28.5012 104.947 28.8802C105.16 29.2581 105.45 29.5511 105.818 29.7594C106.185 29.9676 106.601 30.0716 107.061 30.0716L107.062 30.0727Z" fill="white"/>
<path d="M113.642 31.1918V23.9054H116.462C116.98 23.9054 117.429 23.9935 117.81 24.1678C118.191 24.3431 118.487 24.5933 118.695 24.9202C118.903 25.2461 119.007 25.6352 119.007 26.0856C119.007 26.4466 118.932 26.7645 118.783 27.0382C118.634 27.3121 118.428 27.5395 118.166 27.7205C117.905 27.9015 117.602 28.0271 117.258 28.1007L119.376 31.1918H117.752L115.868 28.3394H114.994V31.1918H113.641H113.642ZM114.995 27.2306H116.264C116.698 27.2306 117.036 27.1401 117.279 26.9568C117.523 26.7735 117.644 26.5087 117.644 26.158C117.644 25.8072 117.533 25.5165 117.311 25.3252C117.089 25.1341 116.762 25.039 116.332 25.039H114.995V27.2306Z" fill="white"/>
<path d="M121.988 31.1918V23.9054H123.3L126.751 28.9221V23.9054H128.067V31.1918H126.756L123.305 26.1117V31.1918H121.988Z" fill="white"/>
<path d="M131.273 31.1918V23.9054H136.119V25.0922H132.627V26.8562H135.614V27.965H132.627V29.9947H136.156V31.1918H131.273Z" fill="white"/>
<path d="M139.068 31.1918V23.9054H141.888C142.405 23.9054 142.855 23.9935 143.236 24.1678C143.617 24.3431 143.912 24.5933 144.12 24.9202C144.329 25.2461 144.433 25.6352 144.433 26.0856C144.433 26.4466 144.358 26.7645 144.209 27.0382C144.059 27.3121 143.854 27.5395 143.592 27.7205C143.331 27.9015 143.028 28.0271 142.684 28.1007L144.802 31.1918H143.178L141.294 28.3394H140.42V31.1918H139.066H139.068ZM140.421 27.2306H141.69C142.124 27.2306 142.462 27.1401 142.705 26.9568C142.948 26.7735 143.07 26.5087 143.07 26.158C143.07 25.8072 142.959 25.5165 142.737 25.3252C142.515 25.1341 142.188 25.039 141.758 25.039H140.421V27.2306Z" fill="white"/>
</svg>
