<svg width="99" height="22" viewBox="0 0 99 22" fill="none" xmlns="http://www.w3.org/2000/svg">
<mask id="mask0_285_3240" style="mask-type:luminance" maskUnits="userSpaceOnUse" x="0" y="0" width="32" height="22">
<path d="M31.1775 0H0V21.5922H31.1775V0Z" fill="white"/>
</mask>
<g mask="url(#mask0_285_3240)">
<path d="M30.9843 14.7614C30.7724 15.1952 30.3082 15.6896 29.8642 16.0731C29.7432 16.0125 29.6422 15.9217 29.5616 15.8208L27.4125 12.9452L18.8866 2.32065L14.1343 8.00121L13.8719 8.314L12.0456 10.4934L10.068 12.718C9.34162 12.6473 8.61506 12.5969 7.88864 12.5666L9.69473 10.5438L12.5401 7.14358L11.7026 6.11442L11.2081 6.80052C11.0467 7.0225 10.7945 7.16376 10.512 7.16376C10.2294 7.16376 9.96721 7.04268 9.79556 6.8308L7.88864 4.45969L2.95475 11.2299L2.00633 12.5315C1.64312 12.5315 1.27978 12.5214 0.916568 12.5113C0.704673 12.5013 0.543264 12.4811 0.422239 12.4508L0.119472 12.1481H0.109375C0.109375 12.138 0.805642 11.1795 0.805642 11.1795L7.14203 2.48209C7.30344 2.26011 7.55572 2.12895 7.83816 2.11886C8.11063 2.11886 8.38311 2.22985 8.55462 2.45183L10.4615 4.82293L10.956 4.13682C11.1174 3.91485 11.3797 3.77359 11.6521 3.77359C11.9347 3.77359 12.1868 3.88457 12.3685 4.09647L13.7206 5.76128L18.2509 0.322876C18.4224 0.110991 18.6848 2.73436e-06 18.9571 0.0100925C19.2296 0.0100925 19.4819 0.15135 19.6433 0.363236L30.1064 13.591L30.9843 14.7715V14.7614Z" fill="#353B37"/>
<path d="M30.9589 15.4878C30.747 15.9217 30.2828 16.4161 29.8388 16.7995C29.516 17.0921 29.1932 17.3242 29.0115 17.4351C28.0328 17.98 27.1045 17.7278 25.924 17.4351C23.8556 16.8701 21.8377 15.8107 19.8298 15.0338C16.6112 13.7423 13.3824 13.1369 10.0831 12.8342C9.35665 12.7636 8.6301 12.7131 7.90368 12.6829C5.96647 12.582 3.99897 12.5517 2.01128 12.5214C1.64807 12.5214 1.28472 12.5113 0.92151 12.5012C0.709615 12.4912 0.548205 12.471 0.427181 12.4407C0.144609 12.3701 0.0739302 12.2591 0.124414 12.138C0.235478 11.8858 0.860931 11.5932 1.3655 11.5124C1.89012 11.4115 2.42497 11.3106 2.95969 11.2198C5.16937 10.8465 7.45969 10.6144 9.70977 10.5236C10.4968 10.4934 11.2838 10.4732 12.0607 10.4833C12.8477 10.4833 13.6145 10.5035 14.3712 10.5438C17.2065 10.6851 19.9711 11.4216 22.6751 12.2591C24.229 12.7434 25.803 13.258 27.3871 13.6717C27.7604 13.7725 28.1236 13.8533 28.4969 13.9441H28.5171C28.8601 14.0248 29.2133 14.1055 29.5564 14.1862C29.738 14.2367 29.9095 14.267 30.081 14.3073C30.4442 14.388 30.7672 14.499 30.9991 14.7614C31.1405 14.9531 31.1001 15.2053 30.969 15.4878H30.9589Z" fill="#426EB5"/>
<path d="M12.2186 15.4878C13.2377 15.7502 14.2669 16.0024 15.2759 16.3152C16.8499 16.8298 18.3532 17.4553 19.8869 18.1818C20.6839 18.5652 21.4307 18.9587 22.0662 19.3321C22.4195 19.554 22.8029 19.776 23.0551 20.1191C23.6806 21.0372 22.2177 21.3198 21.5315 21.4206C15.4373 22.5608 12.9753 17.5966 7.80934 16.1941C7.45623 16.0932 6.79039 15.8814 6.75 15.5383C6.75 15.2558 7.12331 15.1246 7.39578 15.0742C8.1424 14.9733 8.94959 15.0742 9.6962 15.1347C10.5337 15.2154 11.3912 15.2961 12.1883 15.4878H12.2085H12.2186Z" fill="#426EB5"/>
</g>
<path d="M96.3609 8.49916C97.3903 8.49916 98.5197 7.7071 98.8471 6.73165C99.2151 5.6335 98.8971 4.58214 98.2124 3.898C97.7243 3.40996 97.0509 3.10864 96.3062 3.10864H90.1656C90.0676 3.10864 89.9883 3.18798 89.9883 3.28599V4.40939C89.9883 4.50739 90.0676 4.58674 90.1656 4.58674H90.8797C90.9777 4.58674 91.057 4.66608 91.057 4.76408V10.754C91.057 10.852 91.1364 10.9313 91.2344 10.9313H92.3578C92.4559 10.9313 92.5352 10.852 92.5352 10.754V8.67579C92.5352 8.57778 92.6146 8.49844 92.7126 8.49844H93.7653C93.8126 8.49844 93.8573 8.5171 93.8906 8.55046L95.1541 9.81388L96.2195 10.8794C96.2529 10.9127 96.2982 10.9313 96.3449 10.9313H98.8225C98.9205 10.9313 98.9998 10.852 98.9998 10.754V9.62986C98.9998 9.53186 98.9205 9.45252 98.8225 9.45252H96.9576C96.9103 9.45252 96.8655 9.43385 96.8323 9.40059L96.2335 8.80183C96.1215 8.68985 96.2009 8.49844 96.3588 8.49844L96.3609 8.49916ZM92.5365 6.84228V4.76408C92.5365 4.66608 92.6158 4.58674 92.7138 4.58674H96.2728C96.945 4.58674 97.5157 5.11751 97.523 5.78957C97.527 6.13091 97.3896 6.44025 97.1663 6.66367C96.9462 6.8843 96.6422 7.02035 96.3062 7.02035H92.7138C92.6158 7.02035 92.5365 6.94101 92.5365 6.843V6.84228Z" fill="#3D6D57"/>
<path d="M50.5825 4.41011V3.28599C50.5825 3.18798 50.5031 3.10864 50.4051 3.10864H48.1603C48.1129 3.10864 48.0683 3.12731 48.0349 3.16067L44.9666 6.22892C44.9333 6.26228 44.888 6.28094 44.8413 6.28094H44.2952C44.1972 6.28094 44.1179 6.2016 44.1179 6.10359V3.28599C44.1179 3.18798 44.0385 3.10864 43.9405 3.10864H41.7477C41.6497 3.10864 41.5703 3.18798 41.5703 3.28599V4.41011C41.5703 4.50812 41.6497 4.58746 41.7477 4.58746H42.4611C42.5591 4.58746 42.6384 4.6668 42.6384 4.7648V9.27454C42.6384 9.37254 42.5591 9.45189 42.4611 9.45189H41.7477C41.6497 9.45189 41.5703 9.53123 41.5703 9.62923V10.7534C41.5703 10.8514 41.6497 10.9307 41.7477 10.9307H43.9405C44.0385 10.9307 44.1179 10.8514 44.1179 10.7534V7.93575C44.1179 7.83774 44.1972 7.7584 44.2952 7.7584H44.8413C44.8886 7.7584 44.9333 7.77706 44.9666 7.81042L48.0349 10.8787C48.0683 10.912 48.1136 10.9307 48.1603 10.9307H50.4051C50.5031 10.9307 50.5825 10.8514 50.5825 10.7534V9.62923C50.5825 9.53123 50.5031 9.45189 50.4051 9.45189H48.7723C48.725 9.45189 48.6803 9.43322 48.647 9.39986L46.3921 7.14504C46.3228 7.07571 46.3228 6.963 46.3921 6.89367L48.647 4.63876C48.6803 4.60549 48.7256 4.58674 48.7723 4.58674H50.4051C50.5031 4.58674 50.5825 4.50748 50.5825 4.40939V4.41011Z" fill="#3D6D57"/>
<path d="M60.2847 9.4525H54.1741C54.0761 9.4525 53.9968 9.37316 53.9968 9.27515V7.93708C53.9968 7.83907 54.0761 7.75973 54.1741 7.75973H58.1611C58.2591 7.75973 58.3385 7.68039 58.3385 7.58239V6.45827C58.3385 6.36026 58.2591 6.28092 58.1611 6.28092H54.1741C54.0761 6.28092 53.9968 6.20158 53.9968 6.10357V4.58807H60.2847C60.3827 4.58807 60.462 4.50872 60.462 4.41072V3.2866C60.462 3.18859 60.3827 3.10925 60.2847 3.10925H52.518H51.6266C51.5286 3.10925 51.4492 3.18859 51.4492 3.2866V4.41072C51.4492 4.50872 51.5286 4.58807 51.6266 4.58807H52.3406C52.4386 4.58807 52.518 4.66741 52.518 4.76541V10.932H53.9968H60.2847C60.3827 10.932 60.462 10.8527 60.462 10.7547V9.63056C60.462 9.53256 60.3827 9.45322 60.2847 9.45322V9.4525Z" fill="#3D6D57"/>
<path d="M88.8277 9.4525H82.7171C82.6191 9.4525 82.5398 9.37316 82.5398 9.27515V7.93708C82.5398 7.83907 82.6191 7.75973 82.7171 7.75973H86.7041C86.8021 7.75973 86.8814 7.68039 86.8814 7.58239V6.45827C86.8814 6.36026 86.8021 6.28092 86.7041 6.28092H82.7171C82.6191 6.28092 82.5398 6.20158 82.5398 6.10357V4.58807H88.8277C88.9257 4.58807 89.005 4.50872 89.005 4.41072V3.2866C89.005 3.18859 88.9257 3.10925 88.8277 3.10925H81.061H80.1695C80.0715 3.10925 79.9922 3.18859 79.9922 3.2866V4.41072C79.9922 4.50872 80.0715 4.58807 80.1695 4.58807H80.8836C80.9816 4.58807 81.061 4.66741 81.061 4.76541V10.932H82.5398H88.8277C88.9257 10.932 89.005 10.8527 89.005 10.7547V9.63056C89.005 9.53256 88.9257 9.45322 88.8277 9.45322V9.4525Z" fill="#3D6D57"/>
<path d="M78.4286 8.5611V9.27517C78.4286 9.37318 78.3493 9.45252 78.2513 9.45252H73.6201C73.5221 9.45252 73.4427 9.37318 73.4427 9.27517V3.28599C73.4427 3.18798 73.3634 3.10864 73.2654 3.10864H71.0719C70.9739 3.10864 70.8945 3.18798 70.8945 3.28599V4.41011C70.8945 4.50812 70.9739 4.58746 71.0719 4.58746H71.7859C71.884 4.58746 71.9633 4.6668 71.9633 4.7648V10.9313H79.73C79.8281 10.9313 79.9073 10.852 79.9073 10.754V8.56047C79.9073 8.46246 79.8281 8.38312 79.73 8.38312H78.606C78.508 8.38312 78.4286 8.46246 78.4286 8.56047V8.5611Z" fill="#3D6D57"/>
<path d="M69.2626 6.44098C69.4093 6.13623 69.4913 5.79488 69.4913 5.43415C69.4913 4.15009 68.4499 3.10864 67.1658 3.10864H64.2741H62.7953H61.9039C61.8059 3.10864 61.7266 3.18798 61.7266 3.28599V4.41011C61.7266 4.50812 61.8059 4.58746 61.9039 4.58746H62.7953V6.28022V7.75903V9.27454C62.7953 9.37254 62.716 9.45189 62.618 9.45189H61.9039C61.8059 9.45189 61.7266 9.53123 61.7266 9.62923V10.7534C61.7266 10.8514 61.8059 10.9307 61.9039 10.9307H64.2749H68.4146C69.6986 10.9307 70.7401 9.88926 70.7401 8.6051C70.7401 7.62037 70.1274 6.77899 69.2626 6.43962V6.44098ZM67.1658 4.58746C67.6332 4.58746 68.0126 4.96613 68.0126 5.43415C68.0126 5.90154 67.6338 6.28094 67.1658 6.28094H64.4522C64.3542 6.28094 64.2749 6.2016 64.2749 6.10359V4.76543C64.2749 4.66743 64.3542 4.58809 64.4522 4.58809H67.1658V4.58746ZM69.2613 8.60582C69.2613 9.07321 68.8826 9.45252 68.4146 9.45252H64.4522C64.3542 9.45252 64.2749 9.37318 64.2749 9.27517V7.9371C64.2749 7.83909 64.3542 7.75975 64.4522 7.75975H67.1658H68.4139C68.8813 7.75975 69.2606 8.13843 69.2606 8.60645L69.2613 8.60582Z" fill="#3D6D57"/>
<path d="M57.7603 18.4822C57.3141 18.4822 56.9241 18.3901 56.5888 18.2061C56.2534 18.0221 55.9928 17.7627 55.8068 17.4287C55.6207 17.0947 55.5273 16.7013 55.5273 16.2492C55.5273 15.9199 55.582 15.6192 55.6913 15.3458C55.8007 15.0731 55.9561 14.8358 56.1574 14.6345C56.3588 14.433 56.5961 14.2777 56.8688 14.1684C57.1415 14.0591 57.4415 14.0043 57.7689 14.0043C58.0963 14.0043 58.3943 14.0471 58.6336 14.1317C58.873 14.2164 59.0857 14.337 59.2717 14.4924L58.8636 15.1458C58.733 15.0212 58.5796 14.9285 58.4049 14.8684C58.2303 14.8085 58.0362 14.7777 57.8236 14.7777C57.5969 14.7777 57.3929 14.8118 57.2135 14.8792C57.0335 14.9464 56.8801 15.0444 56.7534 15.1718C56.6268 15.2999 56.5295 15.4538 56.4621 15.6332C56.3948 15.8125 56.3608 16.0152 56.3608 16.2406C56.3608 16.5493 56.4207 16.8127 56.5415 17.0299C56.6621 17.248 56.8335 17.4147 57.0568 17.5313C57.2802 17.6481 57.5442 17.7061 57.8509 17.7061C58.0576 17.7061 58.2589 17.674 58.4563 17.6107C58.6537 17.5474 58.8403 17.446 59.0164 17.3074L59.3844 17.9787C59.1797 18.1381 58.943 18.2621 58.6743 18.3501C58.4056 18.4382 58.1003 18.4822 57.7589 18.4822H57.7603Z" fill="#383C39"/>
<path d="M62.879 18.4822C62.5536 18.4822 62.2529 18.4255 61.9755 18.3121C61.6982 18.1988 61.4575 18.0407 61.2535 17.8381C61.0494 17.6354 60.8908 17.3987 60.7781 17.1267C60.6654 16.8547 60.6094 16.5606 60.6094 16.2432C60.6094 15.9258 60.6654 15.6292 60.7781 15.3572C60.8908 15.0851 61.0488 14.8478 61.2535 14.6457C61.4581 14.4438 61.6989 14.2857 61.9755 14.1738C62.2522 14.0617 62.5536 14.0051 62.879 14.0051C63.2043 14.0051 63.5016 14.0624 63.7777 14.1771C64.0537 14.2917 64.2938 14.4511 64.4984 14.6558C64.7031 14.8604 64.8624 15.0978 64.9771 15.3692C65.0918 15.6405 65.1491 15.9319 65.1491 16.2446C65.1491 16.5572 65.0918 16.8559 64.9771 17.128C64.8624 17.4001 64.7031 17.6374 64.4984 17.8394C64.2938 18.0414 64.0537 18.2001 63.7777 18.3135C63.5016 18.4268 63.2023 18.4834 62.879 18.4834V18.4822ZM62.879 17.7307C63.0817 17.7307 63.2703 17.6954 63.445 17.6247C63.6197 17.5541 63.7724 17.4541 63.9017 17.3241C64.0311 17.194 64.1324 17.038 64.2051 16.8547C64.2777 16.6719 64.3137 16.468 64.3137 16.2426C64.3137 15.9419 64.2504 15.6805 64.1237 15.4572C63.9971 15.2345 63.825 15.0618 63.6084 14.9391C63.3916 14.8164 63.1483 14.7551 62.8783 14.7551C62.6736 14.7551 62.4849 14.7898 62.3109 14.8592C62.1369 14.9285 61.9855 15.0291 61.8555 15.1598C61.7255 15.2905 61.6241 15.4472 61.5522 15.6292C61.4795 15.8112 61.4434 16.0159 61.4434 16.2426C61.4434 16.5433 61.5061 16.8046 61.6322 17.028C61.7582 17.2507 61.9289 17.4233 62.1455 17.546C62.3622 17.6687 62.6069 17.73 62.8783 17.73L62.879 17.7307Z" fill="#383C39"/>
<path d="M66.7546 18.3901V14.0964H68.4167C68.7215 14.0964 68.9862 14.1484 69.2109 14.2511C69.4356 14.3544 69.6096 14.5018 69.7323 14.6945C69.8549 14.8865 69.9163 15.1158 69.9163 15.3812C69.9163 15.5939 69.8722 15.7813 69.7842 15.9426C69.6962 16.1039 69.5748 16.2379 69.4209 16.3446C69.2669 16.4512 69.0882 16.5253 68.8855 16.5686L70.1336 18.3901H69.1769L68.0667 16.7093H67.5514V18.3901H66.7539H66.7546ZM67.552 16.0559H68.3001C68.5555 16.0559 68.7548 16.0026 68.8982 15.8946C69.0415 15.7866 69.1129 15.6305 69.1129 15.4239C69.1129 15.2171 69.0475 15.0458 68.9169 14.9331C68.7861 14.8205 68.5935 14.7644 68.3401 14.7644H67.552V16.0559Z" fill="#383C39"/>
<path d="M71.6758 18.3901V14.0964H72.4485L74.4821 17.0527V14.0964H75.2581V18.3901H74.4855L72.4519 15.3965V18.3901H71.6758Z" fill="#383C39"/>
<path d="M77.1445 18.3901V14.0964H80.0001V14.7958H77.9419V15.8353H79.7021V16.4887H77.9419V17.6847H80.0215V18.3901H77.1445Z" fill="#383C39"/>
<path d="M81.739 18.3901V14.0964H83.4011C83.7059 14.0964 83.9706 14.1484 84.1952 14.2511C84.4199 14.3544 84.5939 14.5018 84.7166 14.6945C84.8393 14.8865 84.9006 15.1158 84.9006 15.3812C84.9006 15.5939 84.8566 15.7813 84.7686 15.9426C84.6806 16.1039 84.5592 16.2379 84.4052 16.3446C84.2512 16.4512 84.0725 16.5253 83.8699 16.5686L85.1179 18.3901H84.1613L83.0511 16.7093H82.5358V18.3901H81.7383H81.739ZM82.5364 16.0559H83.2844C83.5398 16.0559 83.7392 16.0026 83.8825 15.8946C84.0258 15.7866 84.0972 15.6305 84.0972 15.4239C84.0972 15.2171 84.0319 15.0458 83.9011 14.9331C83.7705 14.8205 83.5778 14.7644 83.3245 14.7644H82.5364V16.0559Z" fill="#383C39"/>
</svg>
