<svg width="182" height="40" viewBox="0 0 182 40" fill="none" xmlns="http://www.w3.org/2000/svg">
<mask id="mask0_171_1194" style="mask-type:luminance" maskUnits="userSpaceOnUse" x="0" y="0" width="58" height="40">
<path d="M57.3137 0H0V39.6929H57.3137V0Z" fill="white"/>
</mask>
<g mask="url(#mask0_171_1194)">
<path d="M56.9616 27.136C56.5721 27.9333 55.7188 28.8423 54.9026 29.5471C54.6801 29.4357 54.4945 29.2689 54.3463 29.0833L50.3956 23.7972L34.7224 4.26604L25.9863 14.7086L25.504 15.2836L22.1467 19.29L18.5113 23.3794C17.1759 23.2496 15.8403 23.1569 14.5049 23.1012L17.825 19.3827L23.0557 13.132L21.5161 11.2401L20.6071 12.5014C20.3104 12.9095 19.8467 13.1691 19.3275 13.1691C18.808 13.1691 18.3259 12.9466 18.0104 12.557L14.5049 8.19823L5.4349 20.644L3.69143 23.0367C3.02374 23.0367 2.3558 23.0182 1.68811 22.9996C1.29858 22.9811 1.00186 22.944 0.779382 22.8883L0.222805 22.3319H0.204243C0.204243 22.3133 1.48419 20.5513 1.48419 20.5513L13.1324 4.56281C13.4291 4.15475 13.8929 3.91363 14.4121 3.89507C14.913 3.89507 15.4139 4.09912 15.7292 4.50718L19.2346 8.86597L20.1436 7.60471C20.4404 7.19665 20.9224 6.93697 21.4233 6.93697C21.9428 6.93697 22.4063 7.14099 22.7401 7.53052L25.2258 10.591L33.5539 0.593521C33.8691 0.204011 34.3515 -1.81352e-05 34.8521 0.01853C35.353 0.01853 35.8168 0.278204 36.1135 0.667714L55.3478 24.9843L56.9616 27.1545V27.136Z" fill="#353B37"/>
<path d="M56.9071 28.4713C56.5176 29.2689 55.6643 30.1776 54.8481 30.8825C54.2547 31.4205 53.6612 31.8471 53.3272 32.051C51.528 33.0526 49.8217 32.5891 47.6515 32.051C43.8491 31.0124 40.1397 29.0647 36.4486 27.6366C30.5317 25.2625 24.5962 24.1496 18.5311 23.5931C17.1957 23.4633 15.8601 23.3705 14.5247 23.3149C10.9635 23.1294 7.34664 23.0738 3.69266 23.0181C3.02497 23.0181 2.35703 22.9996 1.68934 22.981C1.29981 22.9625 1.00309 22.9254 0.780611 22.8697C0.261157 22.7399 0.131229 22.5359 0.224033 22.3133C0.428203 21.8496 1.57798 21.3117 2.50552 21.1633C3.46993 20.9778 4.45315 20.7923 5.43612 20.6254C9.49819 19.9391 13.7085 19.5125 17.8448 19.3456C19.2916 19.2899 20.7383 19.2528 22.1665 19.2714C23.6132 19.2714 25.0228 19.3085 26.4139 19.3827C31.626 19.6424 36.7082 20.9964 41.679 22.5359C44.5356 23.4262 47.4291 24.3721 50.3411 25.1326C51.0274 25.318 51.6951 25.4664 52.3813 25.6335H52.4184C53.049 25.7817 53.6981 25.9302 54.3289 26.0785C54.6628 26.1713 54.9781 26.2269 55.2934 26.3012C55.961 26.4494 56.5547 26.6536 56.9811 27.1359C57.241 27.4883 57.1667 27.9518 56.9257 28.4713H56.9071Z" fill="#426EB5"/>
<path d="M22.4646 28.4713C24.338 28.9537 26.23 29.4172 28.0848 29.9923C30.9783 30.9382 33.7419 32.0882 36.5614 33.4236C38.0264 34.1284 39.3992 34.8517 40.5675 35.5382C41.2169 35.9461 41.9217 36.3542 42.3855 36.985C43.5352 38.6728 40.8459 39.1922 39.5845 39.3776C28.3815 41.4735 23.8557 32.3478 14.3591 29.7696C13.7099 29.5842 12.4859 29.1947 12.4117 28.5641C12.4117 28.0447 13.0979 27.8036 13.5988 27.7108C14.9713 27.5255 16.4552 27.7108 17.8277 27.8222C19.3672 27.9704 20.9437 28.1189 22.409 28.4713H22.4461H22.4646Z" fill="#426EB5"/>
</g>
<path d="M177.144 15.6241C179.036 15.6241 181.112 14.168 181.714 12.3749C182.391 10.3561 181.806 8.42341 180.547 7.16576C179.65 6.2686 178.412 5.71469 177.043 5.71469H165.755C165.575 5.71469 165.429 5.86054 165.429 6.0407V8.10585C165.429 8.28601 165.575 8.43187 165.755 8.43187H167.068C167.248 8.43187 167.394 8.57772 167.394 8.75788V19.7691C167.394 19.9493 167.539 20.0952 167.72 20.0952H169.785C169.965 20.0952 170.111 19.9493 170.111 19.7691V15.9488C170.111 15.7686 170.257 15.6228 170.437 15.6228H172.372C172.459 15.6228 172.541 15.6571 172.602 15.7184L174.925 18.0409L176.884 19.9997C176.945 20.0608 177.028 20.0952 177.114 20.0952H181.669C181.849 20.0952 181.995 19.9493 181.995 19.7691V17.7027C181.995 17.5225 181.849 17.3766 181.669 17.3766H178.241C178.154 17.3766 178.071 17.3423 178.01 17.2812L176.909 16.1805C176.704 15.9746 176.849 15.6228 177.14 15.6228L177.144 15.6241ZM170.113 12.5782V8.75788C170.113 8.57772 170.259 8.43187 170.439 8.43187H176.982C178.217 8.43187 179.266 9.40759 179.28 10.643C179.287 11.2705 179.035 11.8392 178.624 12.2499C178.22 12.6555 177.661 12.9056 177.043 12.9056H170.439C170.259 12.9056 170.113 12.7597 170.113 12.5796V12.5782Z" fill="#3D6D57"/>
<path d="M92.9853 8.10718V6.0407C92.9853 5.86054 92.8395 5.71469 92.6593 5.71469H88.5326C88.4455 5.71469 88.3634 5.749 88.3021 5.81032L82.6617 11.4507C82.6004 11.512 82.5171 11.5463 82.4313 11.5463H81.4275C81.2473 11.5463 81.1015 11.4005 81.1015 11.2203V6.0407C81.1015 5.86054 80.9556 5.71469 80.7754 5.71469H76.7443C76.5641 5.71469 76.4182 5.86054 76.4182 6.0407V8.10718C76.4182 8.28734 76.5641 8.43319 76.7443 8.43319H78.0557C78.2359 8.43319 78.3817 8.57905 78.3817 8.75921V17.0495C78.3817 17.2296 78.2359 17.3755 78.0557 17.3755H76.7443C76.5641 17.3755 76.4182 17.5213 76.4182 17.7015V19.768C76.4182 19.9481 76.5641 20.094 76.7443 20.094H80.7754C80.9556 20.094 81.1015 19.9481 81.1015 19.768V14.5884C81.1015 14.4082 81.2473 14.2624 81.4275 14.2624H82.4313C82.5183 14.2624 82.6004 14.2967 82.6617 14.358L88.3021 19.9984C88.3634 20.0597 88.4468 20.094 88.5326 20.094H92.6593C92.8395 20.094 92.9853 19.9481 92.9853 19.768V17.7015C92.9853 17.5213 92.8395 17.3755 92.6593 17.3755H89.6577C89.5707 17.3755 89.4886 17.3412 89.4273 17.2799L85.2821 13.1348C85.1547 13.0074 85.1547 12.8002 85.2821 12.6727L89.4273 8.5275C89.4886 8.46634 89.5719 8.43187 89.6577 8.43187H92.6593C92.8395 8.43187 92.9853 8.28618 92.9853 8.10585V8.10718Z" fill="#3D6D57"/>
<path d="M110.822 17.3767H99.5894C99.4092 17.3767 99.2634 17.2308 99.2634 17.0506V14.5909C99.2634 14.4107 99.4092 14.2648 99.5894 14.2648H106.919C107.099 14.2648 107.245 14.119 107.245 13.9388V11.8724C107.245 11.6922 107.099 11.5463 106.919 11.5463H99.5894C99.4092 11.5463 99.2634 11.4005 99.2634 11.2203V8.43436H110.822C111.003 8.43436 111.148 8.2885 111.148 8.10834V6.04187C111.148 5.86171 111.003 5.71585 110.822 5.71585H96.5448H94.9062C94.726 5.71585 94.5801 5.86171 94.5801 6.04187V8.10834C94.5801 8.2885 94.726 8.43436 94.9062 8.43436H96.2188C96.399 8.43436 96.5448 8.58021 96.5448 8.76037V20.0965H99.2634H110.822C111.003 20.0965 111.148 19.9506 111.148 19.7705V17.704C111.148 17.5238 111.003 17.378 110.822 17.378V17.3767Z" fill="#3D6D57"/>
<path d="M163.297 17.3767H152.064C151.884 17.3767 151.738 17.2308 151.738 17.0506V14.5909C151.738 14.4107 151.884 14.2648 152.064 14.2648H159.393C159.574 14.2648 159.719 14.119 159.719 13.9388V11.8724C159.719 11.6922 159.574 11.5463 159.393 11.5463H152.064C151.884 11.5463 151.738 11.4005 151.738 11.2203V8.43436H163.297C163.477 8.43436 163.623 8.2885 163.623 8.10834V6.04187C163.623 5.86171 163.477 5.71585 163.297 5.71585H149.02H147.381C147.201 5.71585 147.055 5.86171 147.055 6.04187V8.10834C147.055 8.2885 147.201 8.43436 147.381 8.43436H148.694C148.874 8.43436 149.02 8.58021 149.02 8.76037V20.0965H151.738H163.297C163.477 20.0965 163.623 19.9506 163.623 19.7705V17.704C163.623 17.5238 163.477 17.378 163.297 17.378V17.3767Z" fill="#3D6D57"/>
<path d="M144.173 15.738V17.0506C144.173 17.2308 144.027 17.3766 143.847 17.3766H135.333C135.153 17.3766 135.007 17.2308 135.007 17.0506V6.0407C135.007 5.86054 134.861 5.71469 134.681 5.71469H130.649C130.468 5.71469 130.323 5.86054 130.323 6.0407V8.10718C130.323 8.28734 130.468 8.43319 130.649 8.43319H131.961C132.141 8.43319 132.287 8.57905 132.287 8.75921V20.0952H146.565C146.745 20.0952 146.891 19.9493 146.891 19.7691V15.7368C146.891 15.5566 146.745 15.4108 146.565 15.4108H144.499C144.318 15.4108 144.173 15.5566 144.173 15.7368V15.738Z" fill="#3D6D57"/>
<path d="M127.33 11.8405C127.6 11.2803 127.75 10.6528 127.75 9.98968C127.75 7.62918 125.836 5.71469 123.475 5.71469H118.16H115.441H113.803C113.622 5.71469 113.477 5.86054 113.477 6.0407V8.10718C113.477 8.28734 113.622 8.43319 113.803 8.43319H115.441V11.545V14.2635V17.0495C115.441 17.2296 115.295 17.3755 115.115 17.3755H113.803C113.622 17.3755 113.477 17.5213 113.477 17.7015V19.768C113.477 19.9481 113.622 20.094 113.803 20.094H118.161H125.771C128.132 20.094 130.046 18.1795 130.046 15.8188C130.046 14.0086 128.92 12.4619 127.33 11.838V11.8405ZM123.475 8.43319C124.335 8.43319 125.032 9.12931 125.032 9.98968C125.032 10.8489 124.336 11.5463 123.475 11.5463H118.487C118.307 11.5463 118.161 11.4005 118.161 11.2203V8.76037C118.161 8.58021 118.307 8.43435 118.487 8.43435H123.475V8.43319ZM127.328 15.8202C127.328 16.6794 126.631 17.3766 125.771 17.3766H118.487C118.307 17.3766 118.161 17.2308 118.161 17.0506V14.5909C118.161 14.4107 118.307 14.2648 118.487 14.2648H123.475H125.77C126.629 14.2648 127.326 14.961 127.326 15.8213L127.328 15.8202Z" fill="#3D6D57"/>
<path d="M106.179 33.9759C105.359 33.9759 104.642 33.8067 104.026 33.4684C103.409 33.1301 102.93 32.6533 102.588 32.0394C102.246 31.4253 102.074 30.7021 102.074 29.8711C102.074 29.2657 102.175 28.7129 102.376 28.2104C102.577 27.709 102.862 27.2728 103.232 26.9027C103.603 26.5324 104.039 26.2468 104.54 26.0459C105.042 25.8449 105.593 25.7443 106.195 25.7443C106.797 25.7443 107.345 25.8229 107.785 25.9785C108.225 26.1341 108.616 26.3559 108.958 26.6415L108.207 27.8426C107.967 27.6135 107.685 27.4432 107.364 27.3328C107.043 27.2226 106.686 27.166 106.295 27.166C105.879 27.166 105.504 27.2287 105.174 27.3525C104.843 27.4761 104.561 27.6563 104.328 27.8905C104.095 28.1258 103.917 28.4089 103.793 28.7386C103.669 29.0683 103.606 29.4408 103.606 29.8552C103.606 30.4227 103.717 30.9068 103.939 31.3063C104.16 31.7072 104.475 32.0135 104.886 32.228C105.296 32.4426 105.782 32.5492 106.346 32.5492C106.726 32.5492 107.096 32.4903 107.459 32.3738C107.821 32.2575 108.164 32.0712 108.488 31.8163L109.165 33.0504C108.788 33.3434 108.353 33.5713 107.859 33.7331C107.365 33.895 106.804 33.9759 106.177 33.9759H106.179Z" fill="#383C39"/>
<path d="M115.587 33.9759C114.989 33.9759 114.436 33.8717 113.926 33.6633C113.416 33.455 112.974 33.1644 112.599 32.7918C112.223 32.4193 111.932 31.9842 111.725 31.4841C111.517 30.9841 111.414 30.4434 111.414 29.86C111.414 29.2766 111.517 28.7313 111.725 28.2313C111.932 27.7311 112.222 27.2948 112.599 26.9234C112.975 26.5521 113.417 26.2616 113.926 26.0557C114.434 25.8497 114.989 25.7456 115.587 25.7456C116.185 25.7456 116.731 25.8511 117.239 26.0619C117.746 26.2725 118.188 26.5656 118.564 26.9418C118.94 27.318 119.233 27.7544 119.444 28.2533C119.655 28.752 119.76 29.2877 119.76 29.8625C119.76 30.4373 119.655 30.9864 119.444 31.4865C119.233 31.9867 118.94 32.4229 118.564 32.7943C118.188 33.1656 117.746 33.4573 117.239 33.6658C116.731 33.8741 116.181 33.9782 115.587 33.9782V33.9759ZM115.587 32.5944C115.959 32.5944 116.306 32.5296 116.627 32.3997C116.948 32.2698 117.229 32.0859 117.467 31.8469C117.705 31.6079 117.891 31.321 118.024 30.9841C118.158 30.6481 118.224 30.2732 118.224 29.8589C118.224 29.3061 118.108 28.8256 117.875 28.4151C117.642 28.0057 117.326 27.6883 116.928 27.4627C116.529 27.2372 116.082 27.1245 115.585 27.1245C115.209 27.1245 114.862 27.1883 114.542 27.3157C114.222 27.4432 113.944 27.6281 113.705 27.8685C113.466 28.1086 113.28 28.3967 113.148 28.7313C113.014 29.066 112.948 29.4422 112.948 29.8589C112.948 30.4116 113.063 30.8921 113.295 31.3026C113.526 31.712 113.84 32.0294 114.238 32.255C114.637 32.4806 115.086 32.5933 115.585 32.5933L115.587 32.5944Z" fill="#383C39"/>
<path d="M122.724 33.8067V25.9136H125.779C126.339 25.9136 126.826 26.009 127.239 26.1978C127.652 26.3877 127.972 26.6587 128.198 27.0129C128.423 27.366 128.536 27.7874 128.536 28.2754C128.536 28.6664 128.455 29.0108 128.293 29.3073C128.131 29.604 127.908 29.8503 127.625 30.0463C127.342 30.2424 127.014 30.3785 126.641 30.4582L128.935 33.8067H127.177L125.136 30.7168H124.188V33.8067H122.722H122.724ZM124.19 29.5156H125.565C126.034 29.5156 126.401 29.4177 126.664 29.2191C126.928 29.0206 127.059 28.7337 127.059 28.3538C127.059 27.9737 126.939 27.6588 126.699 27.4516C126.458 27.2446 126.104 27.1415 125.638 27.1415H124.19V29.5156Z" fill="#383C39"/>
<path d="M131.764 33.8067V25.9136H133.185L136.923 31.3481V25.9136H138.35V33.8067H136.929L133.191 28.3036V33.8067H131.764Z" fill="#383C39"/>
<path d="M141.807 33.8067V25.9136H147.057V27.1992H143.273V29.1101H146.509V30.3112H143.273V32.5099H147.096V33.8067H141.807Z" fill="#383C39"/>
<path d="M150.261 33.8067V25.9136H153.317C153.877 25.9136 154.363 26.009 154.777 26.1978C155.19 26.3877 155.509 26.6587 155.735 27.0129C155.96 27.366 156.073 27.7874 156.073 28.2754C156.073 28.6664 155.992 29.0108 155.83 29.3073C155.669 29.604 155.446 29.8503 155.163 30.0463C154.879 30.2424 154.551 30.3785 154.178 30.4582L156.473 33.8067H154.714L152.673 30.7168H151.726V33.8067H150.26H150.261ZM151.727 29.5156H153.102C153.572 29.5156 153.938 29.4177 154.202 29.2191C154.465 29.0206 154.596 28.7337 154.596 28.3538C154.596 27.9737 154.476 27.6588 154.236 27.4516C153.996 27.2446 153.642 27.1415 153.176 27.1415H151.727V29.5156Z" fill="#383C39"/>
</svg>
