<svg width="216" height="163" viewBox="0 0 216 163" fill="none" xmlns="http://www.w3.org/2000/svg">
<g clip-path="url(#clip0_2002_1988)">
<path d="M206.069 86.1736C209.94 86.1736 214.188 83.1848 215.419 79.5037C216.803 75.3601 215.607 71.3922 213.032 68.8107C211.196 66.969 208.664 65.832 205.863 65.832H182.768C182.4 65.832 182.102 66.1312 182.102 66.5011V70.7405C182.102 71.1105 182.4 71.41 182.768 71.41H185.454C185.823 71.41 186.121 71.7091 186.121 72.079V94.6827C186.121 95.0526 186.419 95.3521 186.788 95.3521H191.013C191.382 95.3521 191.68 95.0526 191.68 94.6827V86.8405C191.68 86.4706 191.979 86.1711 192.347 86.1711H196.307C196.485 86.1711 196.653 86.2415 196.778 86.3675L201.53 91.1351L205.537 95.1557C205.662 95.2817 205.833 95.3521 206.008 95.3521H215.326C215.695 95.3521 215.993 95.0526 215.993 94.6827V90.4407C215.993 90.0711 215.695 89.7716 215.326 89.7716H208.313C208.135 89.7716 207.967 89.7012 207.841 89.5752L205.589 87.3161C205.168 86.8932 205.467 86.1711 206.061 86.1711L206.069 86.1736ZM191.685 79.9215V72.079C191.685 71.7091 191.984 71.41 192.352 71.41H205.737C208.265 71.41 210.412 73.4124 210.439 75.9486C210.454 77.2369 209.938 78.4045 209.098 79.247C208.27 80.0798 207.127 80.5932 205.863 80.5932H192.352C191.984 80.5932 191.685 80.2937 191.685 79.9241V79.9215Z" fill="white"/>
<path d="M34.5049 89.7726H34.4609V89.7285L34.5049 89.7726Z" fill="white"/>
<path d="M33.8944 70.7431V66.5011C33.8944 66.1312 33.596 65.832 33.2274 65.832H24.7845C24.6065 65.832 24.4385 65.9025 24.3131 66.0281L12.7734 77.6069C12.648 77.7325 12.4775 77.8029 12.302 77.8029H10.2483C9.8797 77.8029 9.58128 77.5034 9.58128 77.1339V66.5011C9.58128 66.1312 9.2829 65.832 8.91429 65.832H0.667006C0.298398 65.832 0 66.1312 0 66.5011V70.7431C0 71.113 0.298398 71.4125 0.667006 71.4125H3.35007C3.71867 71.4125 4.01706 71.7116 4.01706 72.0816V89.0996C4.01706 89.4696 3.71867 89.7691 3.35007 89.7691H0.667006C0.298398 89.7691 0 90.0686 0 90.4381V94.6801C0 95.0501 0.298398 95.3495 0.667006 95.3495H8.91429C9.2829 95.3495 9.58128 95.0501 9.58128 94.6801V84.0477C9.58128 83.6778 9.8797 83.3783 10.2483 83.3783H12.302C12.48 83.3783 12.648 83.4487 12.7734 83.5747L24.3131 95.1532C24.4385 95.2791 24.6089 95.3495 24.7845 95.3495H33.2274C33.596 95.3495 33.8944 95.0501 33.8944 94.6801V90.4381C33.8944 90.0686 33.596 89.7691 33.2274 89.7691H27.0864C26.9084 89.7691 26.7404 89.6986 26.615 89.5727L18.1345 81.0636C17.8737 80.8019 17.8737 80.3768 18.1345 80.115L26.615 71.606C26.7404 71.4804 26.9109 71.41 27.0864 71.41H33.2274C33.596 71.41 33.8944 71.1105 33.8944 70.7405V70.7431Z" fill="white"/>
<path d="M70.394 89.7714H47.4123C47.0436 89.7714 46.7455 89.4719 46.7455 89.102V84.0526C46.7455 83.6827 47.0436 83.3832 47.4123 83.3832H62.4075C62.7762 83.3832 63.0743 83.0837 63.0743 82.7141V78.4721C63.0743 78.1022 62.7762 77.8027 62.4075 77.8027H47.4123C47.0436 77.8027 46.7455 77.5032 46.7455 77.1336V71.4145H70.394C70.7624 71.4145 71.0609 71.1153 71.0609 70.7454V66.5034C71.0609 66.1335 70.7624 65.834 70.394 65.834H41.1838H37.8309C37.4626 65.834 37.1641 66.1335 37.1641 66.5034V70.7454C37.1641 71.1153 37.4626 71.4145 37.8309 71.4145H40.5166C40.8853 71.4145 41.1838 71.714 41.1838 72.0839V95.3544H46.7455H70.394C70.7624 95.3544 71.0609 95.0549 71.0609 94.685V90.443C71.0609 90.0731 70.7624 89.7739 70.394 89.7739V89.7714Z" fill="white"/>
<path d="M177.746 89.7714H154.764C154.395 89.7714 154.097 89.4719 154.097 89.102V84.0526C154.097 83.6827 154.395 83.3832 154.764 83.3832H169.759C170.128 83.3832 170.426 83.0837 170.426 82.7141V78.4721C170.426 78.1022 170.128 77.8027 169.759 77.8027H154.764C154.395 77.8027 154.097 77.5032 154.097 77.1336V71.4145H177.746C178.114 71.4145 178.412 71.1153 178.412 70.7454V66.5034C178.412 66.1335 178.114 65.834 177.746 65.834H148.535H145.182C144.814 65.834 144.516 66.1335 144.516 66.5034V70.7454C144.516 71.1153 144.814 71.4145 145.182 71.4145H147.868C148.237 71.4145 148.535 71.714 148.535 72.0839V95.3544H154.097H177.746C178.114 95.3544 178.412 95.0549 178.412 94.685V90.443C178.412 90.0731 178.114 89.7739 177.746 89.7739V89.7714Z" fill="white"/>
<path d="M138.617 86.4078V89.1022C138.617 89.4721 138.318 89.7716 137.95 89.7716H120.532C120.164 89.7716 119.865 89.4721 119.865 89.1022V66.5011C119.865 66.1312 119.567 65.832 119.198 65.832H110.948C110.58 65.832 110.281 66.1312 110.281 66.5011V70.7431C110.281 71.113 110.58 71.4125 110.948 71.4125H113.634C114.002 71.4125 114.301 71.7116 114.301 72.0816V95.3521H143.511C143.88 95.3521 144.178 95.0526 144.178 94.6827V86.4052C144.178 86.0353 143.88 85.7358 143.511 85.7358H139.283C138.915 85.7358 138.617 86.0353 138.617 86.4052V86.4078Z" fill="white"/>
<path d="M104.163 78.407C104.715 77.2569 105.023 75.9689 105.023 74.6075C105.023 69.7618 101.106 65.832 96.2766 65.832H85.4014H79.8396H76.4871C76.1184 65.832 75.8203 66.1312 75.8203 66.5011V70.7431C75.8203 71.113 76.1184 71.4125 76.4871 71.4125H79.8396V77.8004V83.3808V89.0996C79.8396 89.4696 79.5415 89.7691 79.1728 89.7691H76.4871C76.1184 89.7691 75.8203 90.0686 75.8203 90.4381V94.6801C75.8203 95.0501 76.1184 95.3495 76.4871 95.3495H85.4039H100.973C105.803 95.3495 109.72 91.4194 109.72 86.5737C109.72 82.8577 107.415 79.6823 104.163 78.4019V78.407ZM96.2766 71.4125C98.0347 71.4125 99.4613 72.8414 99.4613 74.6075C99.4613 76.3715 98.0368 77.8029 96.2766 77.8029H86.0711C85.7024 77.8029 85.4039 77.5034 85.4039 77.1339V72.0841C85.4039 71.7142 85.7024 71.4147 86.0711 71.4147H96.2766V71.4125ZM104.158 86.5762C104.158 88.3398 102.733 89.7716 100.973 89.7716H86.0711C85.7024 89.7716 85.4039 89.4721 85.4039 89.1022V84.0528C85.4039 83.6829 85.7024 83.3834 86.0711 83.3834H96.2766H100.971C102.729 83.3834 104.155 84.8126 104.155 86.5788L104.158 86.5762Z" fill="white"/>
<path d="M60.8901 123.845C59.2124 123.845 57.7457 123.498 56.4844 122.803C55.2231 122.109 54.2426 121.13 53.5429 119.87C52.8435 118.609 52.4922 117.124 52.4922 115.419C52.4922 114.176 52.6981 113.041 53.1091 112.01C53.5204 110.981 54.1048 110.085 54.862 109.325C55.6193 108.565 56.5119 107.979 57.5376 107.566C58.563 107.154 59.6915 106.947 60.9227 106.947C62.1539 106.947 63.2748 107.108 64.175 107.428C65.0752 107.747 65.8751 108.203 66.5745 108.789L65.0401 111.255C64.5487 110.784 63.972 110.435 63.315 110.208C62.6579 109.982 61.9282 109.866 61.1282 109.866C60.2758 109.866 59.5084 109.994 58.834 110.248C58.157 110.502 57.5803 110.872 57.1038 111.353C56.6273 111.836 56.2612 112.417 56.0079 113.094C55.7546 113.771 55.6269 114.536 55.6269 115.386C55.6269 116.551 55.8523 117.545 56.3064 118.365C56.7601 119.188 57.4045 119.817 58.2446 120.257C59.0847 120.697 60.0775 120.916 61.231 120.916C62.0085 120.916 62.7658 120.795 63.5078 120.556C64.2503 120.317 64.9522 119.935 65.6143 119.412L66.9986 121.945C66.2286 122.547 65.3386 123.015 64.328 123.347C63.3175 123.679 62.1688 123.845 60.8851 123.845H60.8901Z" fill="white"/>
<path d="M80.1292 123.846C78.9056 123.846 77.7745 123.632 76.7314 123.205C75.6883 122.777 74.7831 122.181 74.0157 121.416C73.2487 120.651 72.6517 119.758 72.228 118.731C71.8043 117.704 71.5938 116.595 71.5938 115.397C71.5938 114.2 71.8043 113.08 72.228 112.054C72.6517 111.027 73.2461 110.131 74.0157 109.369C74.7856 108.607 75.6909 108.01 76.7314 107.588C77.772 107.165 78.9056 106.951 80.1292 106.951C81.3528 106.951 82.4712 107.168 83.5092 107.6C84.5476 108.033 85.4503 108.635 86.2199 109.407C86.9898 110.179 87.589 111.075 88.0206 112.099C88.4519 113.123 88.6675 114.222 88.6675 115.402C88.6675 116.582 88.4519 117.71 88.0206 118.736C87.589 119.763 86.9898 120.658 86.2199 121.421C85.4503 122.183 84.5476 122.782 83.5092 123.209C82.4712 123.637 81.3452 123.851 80.1292 123.851V123.846ZM80.1292 121.011C80.8915 121.011 81.601 120.877 82.2581 120.611C82.9151 120.344 83.4893 119.966 83.9759 119.476C84.4622 118.985 84.8436 118.396 85.1167 117.704C85.3899 117.015 85.5256 116.245 85.5256 115.395C85.5256 114.26 85.2871 113.274 84.8106 112.431C84.3345 111.591 83.6876 110.939 82.8724 110.476C82.0576 110.013 81.1423 109.782 80.1267 109.782C79.3571 109.782 78.6472 109.912 77.9927 110.174C77.3382 110.436 76.7691 110.816 76.2803 111.309C75.7911 111.802 75.4101 112.393 75.1391 113.08C74.8659 113.767 74.7306 114.54 74.7306 115.395C74.7306 116.53 74.9662 117.516 75.4401 118.359C75.9141 119.199 76.556 119.851 77.3708 120.314C78.1859 120.777 79.106 121.008 80.1267 121.008L80.1292 121.011Z" fill="white"/>
<path d="M94.7369 123.498V107.295H100.988C102.134 107.295 103.13 107.491 103.975 107.879C104.82 108.269 105.474 108.824 105.936 109.552C106.397 110.276 106.628 111.142 106.628 112.143C106.628 112.946 106.462 113.653 106.131 114.261C105.8 114.871 105.344 115.376 104.764 115.779C104.186 116.181 103.513 116.461 102.751 116.624L107.445 123.498H103.847L99.672 117.155H97.7334V123.498H94.7344H94.7369ZM97.7359 114.689H100.549C101.51 114.689 102.26 114.488 102.799 114.08C103.338 113.673 103.606 113.084 103.606 112.304C103.606 111.524 103.36 110.878 102.869 110.453C102.378 110.027 101.653 109.816 100.7 109.816H97.7359V114.689Z" fill="white"/>
<path d="M113.234 123.498V107.295H116.141L123.789 118.451V107.295H126.707V123.498H123.801L116.153 112.201V123.498H113.234Z" fill="white"/>
<path d="M133.781 123.498V107.295H144.521V109.934H136.78V113.857H143.4V116.322H136.78V120.836H144.601V123.498H133.781Z" fill="white"/>
<path d="M151.081 123.498V107.295H157.332C158.478 107.295 159.473 107.491 160.318 107.879C161.163 108.269 161.818 108.824 162.279 109.552C162.741 110.276 162.971 111.142 162.971 112.143C162.971 112.946 162.806 113.653 162.475 114.261C162.144 114.871 161.687 115.376 161.108 115.779C160.529 116.181 159.857 116.461 159.095 116.624L163.789 123.498H160.19L156.015 117.155H154.077V123.498H151.078H151.081ZM154.079 114.689H156.893C157.853 114.689 158.603 114.488 159.142 114.08C159.681 113.673 159.95 113.084 159.95 112.304C159.95 111.524 159.704 110.878 159.212 110.453C158.721 110.027 157.996 109.816 157.043 109.816H154.079V114.689Z" fill="white"/>
<path d="M34.6631 162.759C33.8456 162.759 33.126 162.59 32.5016 162.255C31.8772 161.921 31.3907 161.443 31.0397 160.829C30.6886 160.212 30.5156 159.488 30.5156 158.65C30.5156 158.039 30.6184 157.48 30.824 156.972C31.0296 156.463 31.318 156.026 31.6916 155.656C32.0653 155.286 32.5066 154.999 33.0182 154.798C33.5272 154.597 34.0864 154.496 34.6906 154.496C35.3476 154.496 35.9018 154.579 36.3481 154.745C36.7946 154.911 37.2006 155.148 37.5616 155.452L36.6238 156.997C36.4057 156.77 36.1425 156.602 35.8341 156.491C35.5257 156.381 35.1847 156.325 34.8135 156.325C34.4424 156.325 34.1164 156.378 33.8281 156.486C33.5397 156.594 33.2965 156.748 33.0959 156.947C32.8953 157.145 32.7423 157.387 32.637 157.671C32.5317 157.955 32.479 158.27 32.479 158.622C32.479 159.105 32.5743 159.518 32.7649 159.863C32.9554 160.207 33.2263 160.469 33.5798 160.653C33.9334 160.836 34.3572 160.927 34.8486 160.927C35.2022 160.927 35.5532 160.874 35.9018 160.766C36.2504 160.658 36.579 160.484 36.8923 160.242L37.7498 161.822C37.3836 162.104 36.9498 162.333 36.4408 162.505C35.9344 162.675 35.3401 162.761 34.6631 162.761V162.759Z" fill="white"/>
<path d="M39.0156 162.59L41.9673 154.664H44.1385L47.1176 162.59H45.0061L44.4471 160.982H41.6159L41.0693 162.59H39.0156ZM42.04 159.412H44.0158L43.0227 156.672L42.04 159.412Z" fill="white"/>
<path d="M49.1094 162.59V154.664H52.1659C52.971 154.664 53.6153 154.833 54.0969 155.17C54.5781 155.507 54.8191 156.008 54.8191 156.672C54.8191 156.913 54.7688 157.135 54.6736 157.341C54.5756 157.545 54.4428 157.726 54.2749 157.882C54.1067 158.038 53.9211 158.164 53.713 158.259C54.1392 158.411 54.4804 158.662 54.7438 159.012C55.0043 159.362 55.1349 159.779 55.1349 160.262C55.1349 160.745 55.017 161.143 54.7815 161.49C54.5456 161.837 54.212 162.107 53.7807 162.3C53.3469 162.491 52.8353 162.59 52.2412 162.59H49.1094ZM50.9825 157.912H51.9127C52.1384 157.912 52.3338 157.875 52.497 157.799C52.6598 157.724 52.7879 157.615 52.8754 157.472C52.9634 157.329 53.0086 157.157 53.0086 156.956C53.0086 156.667 52.9105 156.44 52.7177 156.282C52.5245 156.123 52.2463 156.045 51.8852 156.045H50.9825V157.912ZM50.9825 161.201H51.9702C52.3765 161.201 52.6801 161.118 52.883 160.952C53.0864 160.785 53.1891 160.536 53.1891 160.204C53.1891 159.872 53.0911 159.641 52.8982 159.465C52.705 159.289 52.4167 159.2 52.0332 159.2H50.985V161.198L50.9825 161.201Z" fill="white"/>
<path d="M57.5469 162.59V154.664H59.42V162.59H57.5469Z" fill="white"/>
<path d="M62.2969 162.59V154.664H64.1475L67.3973 159.52V154.664H69.215V162.59H67.3644L64.1099 157.663V162.59H62.2994H62.2969Z" fill="white"/>
<path d="M74.8464 162.758C74.2494 162.758 73.6676 162.67 73.1036 162.491C72.5395 162.315 72.0605 162.058 71.6719 161.722L72.5518 160.317C72.7175 160.496 72.9281 160.647 73.1839 160.776C73.4397 160.904 73.7128 161.002 74.0037 161.073C74.2946 161.143 74.5779 161.178 74.854 161.178C75.24 161.178 75.5559 161.112 75.799 160.982C76.0425 160.851 76.1626 160.662 76.1626 160.413C76.1626 160.209 76.0751 160.038 75.8996 159.897C75.7238 159.757 75.3978 159.623 74.9216 159.495L74.2443 159.303C73.4321 159.077 72.8478 158.768 72.4892 158.375C72.1332 157.983 71.9526 157.512 71.9526 156.961C71.9526 156.607 72.0279 156.279 72.1784 155.98C72.3289 155.68 72.5395 155.419 72.8101 155.198C73.0811 154.976 73.3995 154.805 73.7657 154.682C74.1318 154.558 74.5327 154.498 74.9643 154.498C75.561 154.498 76.1178 154.586 76.6316 154.762C77.1457 154.938 77.5571 155.177 77.8704 155.479L76.955 156.838C76.8121 156.687 76.6341 156.556 76.4235 156.443C76.2129 156.33 75.9846 156.242 75.7339 156.176C75.4857 156.113 75.235 156.08 74.9842 156.08C74.7335 156.08 74.5204 156.113 74.3348 156.176C74.1492 156.239 74.0063 156.332 73.9035 156.45C73.8008 156.569 73.7479 156.71 73.7479 156.873C73.7479 157.004 73.7856 157.115 73.8634 157.205C73.9411 157.293 74.0689 157.379 74.2519 157.457C74.435 157.535 74.6807 157.623 74.9944 157.718L75.684 157.923C76.4912 158.161 77.078 158.458 77.4391 158.816C77.8002 159.175 77.9807 159.641 77.9807 160.214C77.9807 160.717 77.8527 161.158 77.5972 161.543C77.3414 161.925 76.9803 162.225 76.5114 162.441C76.0425 162.655 75.4882 162.763 74.8439 162.763L74.8464 162.758Z" fill="white"/>
<path d="M85.8111 160.924C85.3747 160.924 84.9862 160.825 84.645 160.632C84.3041 160.438 84.0357 160.171 83.8403 159.837C83.6446 159.502 83.5469 159.12 83.5469 158.692C83.5469 158.264 83.6446 157.884 83.8378 157.55C84.0306 157.215 84.2991 156.948 84.6424 156.755C84.9836 156.561 85.3747 156.463 85.8111 156.463C86.2474 156.463 86.636 156.558 86.9797 156.752C87.3231 156.943 87.5915 157.207 87.7869 157.545C87.9827 157.882 88.0803 158.264 88.0803 158.694C88.0803 159.125 87.9827 159.502 87.7869 159.839C87.5915 160.174 87.3231 160.441 86.9797 160.634C86.636 160.828 86.2474 160.926 85.8111 160.926V160.924Z" fill="white"/>
<path d="M94.19 162.59V154.664H97.3946C97.9814 154.664 98.493 154.76 98.9319 154.951C99.3704 155.142 99.7091 155.419 99.9475 155.781C100.186 156.143 100.306 156.579 100.306 157.082C100.306 157.47 100.233 157.814 100.085 158.108C99.9374 158.403 99.7366 158.652 99.4808 158.848C99.2253 159.044 98.9366 159.19 98.6131 159.289L100.74 162.59H98.5155L96.7553 159.674H96.0606V162.59H94.1875H94.19ZM96.0631 158.167H97.1688C97.5603 158.167 97.866 158.089 98.0867 157.935C98.3074 157.779 98.4178 157.535 98.4178 157.2C98.4178 156.866 98.3125 156.612 98.1044 156.451C97.896 156.289 97.5979 156.209 97.209 156.209H96.0631V158.169V158.167Z" fill="white"/>
<path d="M104.895 162.59L101.984 154.664H104.096L105.986 160.2L107.842 154.664H109.918L107.029 162.59H104.898H104.895Z" fill="white"/>
<path d="M117.319 160.924C116.883 160.924 116.494 160.825 116.153 160.632C115.812 160.438 115.544 160.171 115.348 159.837C115.153 159.502 115.055 159.12 115.055 158.692C115.055 158.264 115.153 157.884 115.346 157.55C115.539 157.215 115.807 156.948 116.151 156.755C116.492 156.561 116.883 156.463 117.319 156.463C117.756 156.463 118.144 156.558 118.488 156.752C118.831 156.943 119.099 157.207 119.295 157.545C119.491 157.882 119.589 158.264 119.589 158.694C119.589 159.125 119.491 159.502 119.295 159.839C119.099 160.174 118.831 160.441 118.488 160.634C118.144 160.828 117.756 160.926 117.319 160.926V160.924Z" fill="white"/>
<path d="M129.351 162.759C128.533 162.759 127.814 162.59 127.189 162.255C126.565 161.921 126.078 161.443 125.727 160.829C125.376 160.212 125.203 159.488 125.203 158.65C125.203 158.039 125.306 157.48 125.512 156.972C125.717 156.464 126.006 156.026 126.379 155.656C126.753 155.286 127.194 154.999 127.706 154.798C128.215 154.597 128.774 154.496 129.378 154.496C130.035 154.496 130.589 154.579 131.036 154.745C131.482 154.911 131.888 155.148 132.249 155.452L131.312 156.997C131.093 156.77 130.83 156.602 130.522 156.491C130.213 156.381 129.872 156.325 129.501 156.325C129.13 156.325 128.804 156.378 128.515 156.486C128.227 156.594 127.984 156.748 127.784 156.947C127.583 157.145 127.43 157.387 127.324 157.671C127.219 157.955 127.167 158.27 127.167 158.622C127.167 159.105 127.262 159.518 127.452 159.863C127.643 160.207 127.914 160.469 128.267 160.653C128.621 160.836 129.045 160.927 129.536 160.927C129.89 160.927 130.241 160.874 130.589 160.766C130.938 160.658 131.266 160.484 131.58 160.242L132.437 161.823C132.071 162.104 131.638 162.334 131.128 162.505C130.622 162.675 130.028 162.761 129.351 162.761V162.759Z" fill="white"/>
<path d="M133.703 162.59L136.654 154.664H138.826L141.805 162.59H139.694L139.135 160.982H136.303L135.757 162.59H133.703ZM136.727 159.412H138.703L137.71 156.672L136.727 159.412Z" fill="white"/>
<path d="M143.797 162.59V154.664H145.597L148.599 159.663L147.854 159.668L150.71 154.664H152.503V162.59H150.685L150.72 157.064L151.054 157.183L148.774 161.095H147.528L145.158 157.183L145.479 157.064L145.512 162.59H143.797Z" fill="white"/>
<path d="M155.375 162.59V154.664H158.539C159.129 154.664 159.653 154.767 160.107 154.974C160.56 155.18 160.919 155.479 161.182 155.872C161.443 156.264 161.574 156.735 161.574 157.286C161.574 157.837 161.453 158.317 161.212 158.707C160.972 159.097 160.621 159.392 160.164 159.595C159.705 159.799 159.149 159.9 158.495 159.9H157.248V162.59H155.375ZM157.248 158.325H158.449C158.845 158.325 159.151 158.247 159.372 158.091C159.593 157.935 159.703 157.676 159.703 157.313C159.703 156.951 159.59 156.687 159.362 156.524C159.134 156.36 158.835 156.277 158.462 156.277H157.248V158.327V158.325Z" fill="white"/>
<path d="M163.812 162.59V154.664H165.686V162.59H163.812Z" fill="white"/>
<path d="M168.562 162.59V154.664H170.413L173.663 159.52V154.664H175.481V162.59H173.63L170.376 157.663V162.59H168.565H168.562Z" fill="white"/>
<path d="M182.313 162.758C181.703 162.758 181.129 162.662 180.592 162.477C180.056 162.288 179.582 162.016 179.173 161.659C178.765 161.301 178.444 160.869 178.21 160.36C177.977 159.852 177.859 159.276 177.859 158.635C177.859 157.993 177.972 157.424 178.195 156.916C178.418 156.408 178.73 155.973 179.128 155.61C179.527 155.248 179.988 154.971 180.517 154.78C181.044 154.589 181.611 154.493 182.215 154.493C182.493 154.493 182.784 154.516 183.09 154.559C183.396 154.601 183.704 154.679 184.02 154.788C184.336 154.898 184.647 155.052 184.95 155.25L184.173 156.705C183.902 156.529 183.614 156.395 183.311 156.312C183.007 156.227 182.681 156.184 182.34 156.184C181.944 156.184 181.59 156.239 181.274 156.353C180.959 156.466 180.69 156.629 180.47 156.843C180.249 157.057 180.081 157.314 179.966 157.616C179.85 157.917 179.79 158.26 179.79 158.639C179.79 159.185 179.905 159.643 180.139 160.013C180.372 160.38 180.688 160.66 181.086 160.846C181.485 161.032 181.932 161.125 182.423 161.125C182.619 161.125 182.804 161.108 182.982 161.075C183.16 161.042 183.316 161.002 183.451 160.957V159.553H181.836V158.058H185.091V162.102C184.855 162.237 184.572 162.353 184.249 162.451C183.923 162.55 183.592 162.625 183.251 162.678C182.91 162.731 182.596 162.756 182.31 162.756L182.313 162.758Z" fill="white"/>
<mask id="mask0_2002_1988" style="mask-type:luminance" maskUnits="userSpaceOnUse" x="69" y="0" width="78" height="54">
<path d="M146.944 0.00683594H69.4609V53.8491H146.944V0.00683594Z" fill="white"/>
</mask>
<g mask="url(#mask0_2002_1988)">
<path d="M146.465 36.8156C145.939 37.8974 144.785 39.1302 143.682 40.0864C143.381 39.9354 143.13 39.7089 142.929 39.4573L137.588 32.2869L116.4 5.79346L104.589 19.9585L103.937 20.7385L99.3987 26.173L94.4839 31.7202C92.6785 31.5441 90.8731 31.4183 89.0676 31.3428L93.5562 26.2988L100.627 17.8199L98.5459 15.2536L97.3172 16.9645C96.916 17.518 96.2893 17.8702 95.5871 17.8702C94.8852 17.8702 94.2332 17.5683 93.807 17.0399L89.0676 11.1274L76.8056 28.0097L74.4487 31.2553C73.546 31.2553 72.6433 31.2301 71.7406 31.205C71.2138 31.1798 70.8126 31.1295 70.5119 31.054L69.7597 30.2992H69.7344C69.7344 30.2741 71.4645 27.8839 71.4645 27.8839L87.2119 6.19602C87.6132 5.64251 88.2402 5.31542 88.9421 5.29026C89.6194 5.29026 90.2963 5.56704 90.7226 6.12055L95.4619 12.0331L96.6906 10.3222C97.0918 9.76873 97.7438 9.41649 98.4208 9.41649C99.1227 9.41649 99.7497 9.69326 100.201 10.2216L103.561 14.373L114.82 0.811806C115.246 0.283449 115.898 0.00668969 116.575 0.0318496C117.252 0.0318496 117.879 0.384089 118.28 0.912445L144.284 33.8971L146.465 36.841V36.8156Z" fill="white"/>
<path d="M146.386 38.6273C145.86 39.7092 144.706 40.942 143.603 41.8982C142.801 42.6279 141.998 43.2066 141.547 43.4832C139.115 44.842 136.808 44.2129 133.874 43.4832C128.733 42.0743 123.718 39.4325 118.728 37.4954C110.729 34.2748 102.705 32.7652 94.5054 32.0104C92.6999 31.8343 90.8945 31.7085 89.0891 31.633C84.2749 31.3814 79.385 31.3059 74.4452 31.2304C73.5425 31.2304 72.6398 31.2053 71.7371 31.1801C71.2107 31.155 70.8094 31.1047 70.5084 31.0292C69.8061 30.853 69.6306 30.5763 69.7562 30.2744C70.0319 29.6454 71.5866 28.9157 72.8402 28.7145C74.1442 28.4629 75.4731 28.2112 76.8024 27.9848C82.294 27.0539 87.9859 26.4752 93.5777 26.2488C95.5336 26.1733 97.4896 26.123 99.4202 26.1481C101.376 26.1481 103.282 26.1985 105.162 26.2991C112.209 26.6513 119.079 28.488 125.8 30.5763C129.661 31.784 133.573 33.0671 137.51 34.0987C138.438 34.3503 139.34 34.5515 140.268 34.778H140.318C141.171 34.9793 142.049 35.1806 142.901 35.3818C143.352 35.5076 143.779 35.5831 144.205 35.6838C145.108 35.885 145.91 36.1618 146.487 36.8158C146.838 37.2939 146.738 37.9231 146.412 38.6273H146.386Z" fill="white"/>
<path d="M99.8254 38.6275C102.358 39.2817 104.916 39.9108 107.423 40.6906C111.335 41.9739 115.071 43.5339 118.883 45.3454C120.863 46.3016 122.719 47.2825 124.299 48.2137C125.177 48.7673 126.129 49.3205 126.756 50.1762C128.311 52.4655 124.675 53.1701 122.97 53.4217C107.824 56.2649 101.706 43.886 88.8673 40.3889C87.9899 40.1374 86.335 39.6088 86.2344 38.7535C86.2344 38.0489 87.1624 37.7218 87.8394 37.5962C89.6947 37.3446 91.701 37.5962 93.5567 37.7472C95.6378 37.9483 97.7692 38.1498 99.7501 38.6275H99.8004H99.8254Z" fill="white"/>
</g>
</g>
<defs>
<clipPath id="clip0_2002_1988">
<rect width="216" height="163" fill="white"/>
</clipPath>
</defs>
</svg>
